<?xml version="1.0" encoding="iso-8859-1"?>
<!-- Generator: Adobe Illustrator 19.0.0, SVG Export Plug-In . SVG Version: 6.00 Build 0)  -->
<svg version="1.1" id="Layer_1" xmlns="http://www.w3.org/2000/svg" xmlns:xlink="http://www.w3.org/1999/xlink" x="0px" y="0px"
	 viewBox="0 0 512 512" style="enable-background:new 0 0 512 512;" xml:space="preserve">
<rect x="173.1" y="7.287" style="fill:#FFFFFF;" width="165.81" height="497.43"/>
<rect x="7.286" y="7.287" style="fill:#164FCE;" width="165.81" height="497.43"/>
<rect x="338.9" y="7.287" style="fill:#ED1F34;" width="165.81" height="497.43"/>
<path d="M504.714,0H7.286C3.262,0,0,3.262,0,7.287v497.427C0,508.738,3.262,512,7.286,512h497.427c4.025,0,7.286-3.262,7.286-7.286
	V7.287C512,3.262,508.738,0,504.714,0z M14.573,14.573h151.236v482.854H14.573V14.573z M497.427,497.427H346.191V156.515
	c0-4.024-3.262-7.286-7.286-7.286c-4.025,0-7.287,3.262-7.287,7.286v340.912H180.382V14.573h151.236v92.199
	c0,4.024,3.262,7.287,7.287,7.287s7.286-3.262,7.286-7.287V14.573h151.236L497.427,497.427L497.427,497.427z"/>
<g>
</g>
<g>
</g>
<g>
</g>
<g>
</g>
<g>
</g>
<g>
</g>
<g>
</g>
<g>
</g>
<g>
</g>
<g>
</g>
<g>
</g>
<g>
</g>
<g>
</g>
<g>
</g>
<g>
</g>
</svg>
